<?xml version="1.0" encoding="UTF-8"?> <svg xmlns="http://www.w3.org/2000/svg" id="582d59c6-c118-4a16-b941-08176ac3e813" data-name="Capa 1" viewBox="0 0 260 50"><defs><style>.\31 0307902-b224-42e6-953c-0578a84e5d47{fill:#d7d8dc;}.d6a58399-339e-471d-b45d-df93362de3b5{fill:#dd0209;}</style></defs><title>logo-openred</title><rect class="10307902-b224-42e6-953c-0578a84e5d47" width="125.15" height="46.06"></rect><path d="M20,10.73c8.86,0,13.56,6.43,13.56,14.64S28.82,40,20,40,6.41,33.53,6.41,25.37,11.11,10.73,20,10.73ZM20,35.9c4.81,0,8.7-3.78,8.7-10.53S24.77,14.78,20,14.78s-8.69,3.78-8.69,10.59S15.16,35.9,20,35.9Z"></path><path d="M39.14,11.38h4.59v3.78h.11c1.51-3.08,5.07-4.43,8.91-4.43,8.59,0,12.86,6.81,12.86,14.69S61.39,40,52.86,40c-2.87,0-7-1.08-9-4.37h-.11V50H39.14Zm13,3.4c-6.16,0-8.53,5.3-8.53,10.54,0,5.51,2.48,10.58,8.8,10.58s8.37-5.34,8.37-10.8C60.74,19.86,58,14.78,52.1,14.78Z"></path><path d="M94.88,30.45C93.64,36.61,89.21,40,82.94,40,74,40,69.82,33.8,69.55,25.26c0-8.37,5.51-14.53,13.12-14.53,9.89,0,12.91,9.24,12.64,16H74.41c-.16,4.86,2.59,9.18,8.7,9.18,3.78,0,6.42-1.83,7.23-5.45Zm-4.43-7.78a8,8,0,0,0-8-7.89c-4.8,0-7.67,3.62-8,7.89Z"></path><path d="M100.12,11.38h4.32v4.43h.11a9.71,9.71,0,0,1,9.07-5.08c7.35,0,9.62,4.22,9.62,10.21V39.31h-4.59V20.4A5.26,5.26,0,0,0,113,14.78c-5.57,0-8.27,3.73-8.27,8.75V39.31h-4.59Z"></path><path d="M131.83,17.7H132c1.08-3.62,5.62-6.54,10.64-6.32v2a9.39,9.39,0,0,0-7.67,2.7c-2.05,2.11-2.92,3.84-3.13,8V39.31h-2.06V11.54h2.06Z"></path><path d="M145.65,25.69c-.1,6.54,3.35,12.48,10.21,12.48a9.59,9.59,0,0,0,9.94-8.26h2c-1.08,6.48-5.4,10-12,10-8.1,0-12.37-6.37-12.26-14-.11-7.62,3.89-15,12.26-15,8.7,0,12.59,6.86,12.21,14.8ZM166,23.91c-.11-5.83-3.78-11.23-10.16-11.23-6.16,0-9.77,5.72-10.21,11.23Z"></path><path d="M194.37,33.36h-.1C192,37.74,188.6,40,183.63,40c-8.38,0-12-6.8-12-14.47,0-8.21,4-14.59,12.37-14.59,4.54,0,8.81,2.49,10.27,6.86h.1V.74h2.06V39.31h-2.06Zm-.05-7.88c0-6.48-3.19-12.8-10.32-12.8-7.34,0-10.31,6.1-10.31,12.8,0,6.53,3.24,12.69,10.37,12.69S194.32,31.85,194.32,25.48Z"></path><rect class="d6a58399-339e-471d-b45d-df93362de3b5" x="221.5" width="38.5" height="47.75"></rect></svg> 